<?xml version="1.0" standalone="no"?>
<!DOCTYPE svg PUBLIC "-//W3C//DTD SVG 20010904//EN"
 "http://www.w3.org/TR/2001/REC-SVG-20010904/DTD/svg10.dtd">
<svg version="1.0" xmlns="http://www.w3.org/2000/svg"
 width="700.000000pt" height="700.000000pt" viewBox="0 0 700.000000 700.000000"
 preserveAspectRatio="xMidYMid meet">
<metadata>
Created by potrace 1.11, written by Peter Selinger 2001-2013
</metadata>
<g transform="translate(0.000000,700.000000) scale(0.100000,-0.100000)"
fill="#000000" stroke="none">
<path d="M2241 6875 c-93 -54 -188 -160 -243 -273 -32 -65 -33 -71 -33 -192
l0 -126 47 -92 47 -92 -26 -62 c-56 -139 -82 -386 -59 -565 l8 -61 -79 -7
c-411 -33 -782 -176 -1090 -420 l-58 -46 -32 37 c-67 76 -134 237 -158 376 -6
36 -3 40 94 145 263 284 432 537 507 758 23 67 27 98 28 191 1 104 0 113 -27
152 -75 114 -217 108 -385 -17 -290 -217 -452 -543 -477 -961 -19 -313 62
-611 220 -804 l44 -54 -68 -86 c-97 -121 -165 -230 -237 -380 -284 -596 -250
-1278 94 -1851 153 -254 397 -497 654 -650 342 -204 693 -296 1078 -282 183 7
301 25 467 72 67 19 124 35 126 35 2 0 7 -62 10 -137 19 -422 232 -822 577
-1083 447 -337 1058 -393 1551 -142 136 70 222 129 335 233 131 120 156 133
264 133 70 1 100 -5 173 -30 48 -18 87 -30 87 -27 0 3 -15 32 -34 66 -50 89
-84 201 -97 314 -11 96 -10 100 19 199 52 173 65 282 59 482 -4 133 -10 198
-26 260 -12 46 -21 85 -21 87 0 2 39 -8 88 -21 595 -166 1014 -56 1190 310 56
117 67 165 66 296 0 103 -3 123 -28 185 -97 237 -267 348 -561 364 -295 17
-520 -37 -785 -189 l-55 -31 35 32 c271 246 340 312 430 410 232 251 348 408
461 624 205 392 216 741 33 1122 -116 243 -327 446 -590 569 -153 72 -296 105
-484 111 -181 6 -305 -10 -459 -59 -494 -157 -926 -615 -1126 -1193 -21 -60
-41 -114 -45 -118 -4 -4 -28 28 -54 72 -191 324 -469 581 -809 746 -189 93
-368 148 -608 189 -47 8 -49 14 -56 204 -5 125 -3 169 12 238 10 46 20 84 24
84 3 0 41 -12 85 -25 178 -57 343 -40 596 62 127 51 168 105 139 186 -19 53
-59 82 -112 82 -25 -1 -100 -22 -187 -54 -128 -48 -154 -54 -225 -55 -45 0
-97 5 -120 13 l-39 14 44 39 c54 48 198 119 302 149 98 28 129 57 136 128 4
47 2 53 -30 85 -19 19 -48 38 -63 42 -35 9 -140 -17 -253 -62 -100 -40 -150
-68 -238 -135 -52 -40 -68 -48 -75 -38 -16 26 -9 103 15 154 21 47 44 72 154
171 34 31 44 48 49 80 10 79 -46 144 -124 144 -15 0 -48 -12 -72 -25z m-1330
-581 c-41 -105 -83 -174 -210 -346 -68 -92 -107 -136 -109 -125 -9 48 79 259
152 361 44 61 184 202 193 193 2 -3 -10 -40 -26 -83z m1385 -1148 c371 -66
681 -225 938 -482 274 -275 433 -605 487 -1011 13 -105 8 -381 -11 -478 -67
-365 -227 -673 -480 -925 -472 -473 -1175 -624 -1812 -389 -466 172 -859 577
-1011 1044 -65 201 -88 348 -89 570 0 452 172 866 497 1190 295 296 657 461
1095 499 79 7 304 -4 386 -18z m2097 -2369 c75 -19 117 -59 162 -152 52 -107
69 -213 62 -375 -10 -216 -70 -452 -167 -655 -177 -367 -548 -634 -975 -700
-159 -25 -278 -10 -355 45 -16 12 -43 50 -60 87 -37 79 -83 203 -77 209 2 2
30 -1 63 -7 130 -25 296 8 469 90 309 147 515 392 630 746 80 249 92 452 34
584 -24 54 -70 105 -110 122 -16 6 -29 16 -29 22 0 14 280 2 353 -16z m-557
-206 c-7 -92 -52 -259 -102 -380 -67 -163 -164 -321 -283 -460 -119 -140 -314
-266 -432 -278 -80 -8 -89 4 -89 122 0 63 4 98 13 105 6 6 58 40 115 75 307
191 577 489 738 818 21 42 40 77 43 77 2 0 1 -35 -3 -79z m1003 22 c155 -102
323 -289 406 -453 77 -152 80 -165 79 -390 0 -175 -3 -218 -22 -296 -147 -620
-614 -1018 -1242 -1059 -199 -14 -359 23 -517 118 -72 43 -215 150 -247 186
-16 18 -15 18 71 -1 113 -25 385 -35 505 -19 190 25 376 90 526 183 109 68
280 235 351 343 100 153 180 339 217 505 21 95 25 358 6 445 -33 150 -94 292
-183 423 -27 39 -46 72 -43 72 4 0 46 -25 93 -57z"/>
<path d="M1842 4633 c-41 -8 -107 -83 -131 -148 -28 -76 -32 -220 -8 -312 19
-73 67 -172 110 -226 40 -52 121 -97 173 -97 109 0 194 135 194 311 0 121 -60
297 -130 382 -54 64 -142 102 -208 90z"/>
<path d="M603 4153 c-77 -43 -118 -145 -116 -288 2 -161 61 -316 154 -399 51
-46 121 -73 162 -62 79 19 139 106 158 227 38 243 -106 524 -275 536 -36 3
-60 -1 -83 -14z"/>
<path d="M2600 3358 c-312 -186 -696 -364 -1021 -472 -252 -84 -578 -156 -704
-156 -21 0 -35 -5 -35 -12 0 -19 72 -129 135 -207 71 -90 160 -170 269 -242
285 -188 625 -196 982 -24 154 74 290 187 376 313 75 109 137 282 158 442 19
147 10 441 -14 439 -6 0 -72 -37 -146 -81z m-167 -745 l29 -9 -67 -67 c-172
-173 -395 -270 -653 -284 l-122 -6 16 39 c42 101 128 197 229 255 48 28 143
61 228 79 48 11 298 5 340 -7z"/>
</g>
</svg>
